<svg width="25" height="24" viewBox="0 0 25 24" fill="none" xmlns="http://www.w3.org/2000/svg">
<g clip-path="url(#clip0_1_19053)">
<path d="M24.9126 12C24.9126 5.37258 19.54 0 12.9126 0C6.28518 0 0.912598 5.37258 0.912598 12C0.912598 17.9895 5.3008 22.954 11.0376 23.8542V15.4688H7.99072V12H11.0376V9.35625C11.0376 6.34875 12.8292 4.6875 15.5702 4.6875C16.8827 4.6875 18.2563 4.92188 18.2563 4.92188V7.875H16.7432C15.2526 7.875 14.7876 8.80008 14.7876 9.75V12H18.1157L17.5837 15.4688H14.7876V23.8542C20.5244 22.954 24.9126 17.9895 24.9126 12Z" fill="#98A2B3"/>
</g>
<defs>
<clipPath id="clip0_1_19053">
<rect width="24" height="24" fill="white" transform="translate(0.912598)"/>
</clipPath>
</defs>
</svg>
