<svg width="51" height="51" viewBox="0 0 51 51" fill="none" xmlns="http://www.w3.org/2000/svg">
<path d="M29 16.4678C30.4817 17.2041 31.5 18.7331 31.5 20.5C31.5 22.2669 30.4817 23.7959 29 24.5322M31 29.7664C32.5115 30.4503 33.8725 31.565 35 33M15 33C16.9465 30.5226 19.5892 29 22.5 29C25.4108 29 28.0535 30.5226 30 33M27 20.5C27 22.9853 24.9853 25 22.5 25C20.0147 25 18 22.9853 18 20.5C18 18.0147 20.0147 16 22.5 16C24.9853 16 27 18.0147 27 20.5Z" stroke="#01B3DB" stroke-width="2" stroke-linecap="round" stroke-linejoin="round"/>
<rect x="1.5" y="1.5" width="48" height="48" rx="24" stroke="#0083A9" stroke-opacity="0.5" stroke-width="2"/>
</svg>
