<svg width="50" height="51" viewBox="0 0 50 51" fill="none" xmlns="http://www.w3.org/2000/svg">
<path d="M23.4995 27.5001L33.9995 17.0001M23.6271 27.8281L26.2552 34.5861C26.4867 35.1815 26.6025 35.4791 26.7693 35.566C26.9139 35.6414 27.0862 35.6415 27.2308 35.5663C27.3977 35.4796 27.5139 35.1821 27.7461 34.587L34.3364 17.6992C34.5461 17.1621 34.6509 16.8935 34.5935 16.7219C34.5437 16.5728 34.4268 16.4558 34.2777 16.406C34.1061 16.3487 33.8375 16.4535 33.3003 16.6632L16.4126 23.2535C15.8175 23.4857 15.52 23.6018 15.4333 23.7687C15.3581 23.9134 15.3582 24.0857 15.4335 24.2303C15.5204 24.3971 15.8181 24.5128 16.4135 24.7444L23.1715 27.3725C23.2923 27.4195 23.3527 27.443 23.4036 27.4793C23.4487 27.5114 23.4881 27.5509 23.5203 27.596C23.5566 27.6468 23.5801 27.7073 23.6271 27.8281Z" stroke="#01B3DB" stroke-width="2" stroke-linecap="round" stroke-linejoin="round"/>
<rect x="1" y="1.5" width="48" height="48" rx="24" stroke="#0083A9" stroke-opacity="0.5" stroke-width="2"/>
</svg>
