<svg width="25" height="24" viewBox="0 0 25 24" fill="none" xmlns="http://www.w3.org/2000/svg">
<path d="M23.136 0H2.68447C1.70479 0 0.912598 0.773438 0.912598 1.72969V22.2656C0.912598 23.2219 1.70479 24 2.68447 24H23.136C24.1157 24 24.9126 23.2219 24.9126 22.2703V1.72969C24.9126 0.773438 24.1157 0 23.136 0ZM8.03291 20.4516H4.47041V8.99531H8.03291V20.4516ZM6.25166 7.43438C5.10791 7.43438 4.18447 6.51094 4.18447 5.37187C4.18447 4.23281 5.10791 3.30937 6.25166 3.30937C7.39072 3.30937 8.31416 4.23281 8.31416 5.37187C8.31416 6.50625 7.39072 7.43438 6.25166 7.43438ZM21.3642 20.4516H17.8063V14.8828C17.8063 13.5562 17.7829 11.8453 15.9548 11.8453C14.1032 11.8453 13.822 13.2937 13.822 14.7891V20.4516H10.2688V8.99531H13.6813V10.5609H13.7282C14.2017 9.66094 15.3642 8.70938 17.0938 8.70938C20.6985 8.70938 21.3642 11.0813 21.3642 14.1656V20.4516Z" fill="#98A2B3"/>
</svg>
