<?xml version="1.0" encoding="UTF-8"?>
<svg id="Vrstva_2" data-name="Vrstva 2" xmlns="http://www.w3.org/2000/svg" viewBox="0 0 935.62 460.04">
  <defs>
    <style>
      .cls-1 {
        fill: #fff;
      }

      .cls-2 {
        fill: #0eb0dc;
      }

      .cls-3 {
        fill: #ff9b00;
      }
    </style>
  </defs>
  <g id="Vrstva_1-2" data-name="Vrstva 1">
    <g>
      <path class="cls-1" d="M3.8,165.89c6.44,5.07,13.65,8.92,21.65,11.56,8,2.63,15.89,3.95,23.7,3.95,9.75,0,17.31-1.8,22.67-5.41,5.36-3.61,8.04-8.53,8.04-14.77,0-4.68-2.19-8.58-6.58-11.7-4.39-3.12-12.92-6.83-25.6-11.12-16.78-5.65-28.48-12.19-35.11-19.6-6.63-7.41-9.95-16.38-9.95-26.92,0-15.02,5.6-26.67,16.82-34.96,11.21-8.29,25.7-12.43,43.45-12.43,8.78,0,17.36,1.02,25.75,3.07,8.38,2.05,15.51,4.83,21.36,8.34l-8.78,27.5c-10.34-8.38-22.04-12.58-35.11-12.58-7.8,0-14.24,1.51-19.31,4.53-5.07,3.03-7.61,7.36-7.61,13.02,0,4.68,2.44,8.59,7.31,11.7,4.87,3.12,13.36,6.63,25.45,10.53,11.7,4.1,20.82,8.58,27.35,13.46,6.53,4.88,11.07,10.14,13.6,15.8,2.53,5.66,3.8,11.8,3.8,18.43,0,15.8-6,28.14-17.99,37.01-12,8.88-28.04,13.31-48.13,13.31-9.36,0-18.58-1.07-27.65-3.22-9.07-2.14-16.73-4.97-22.97-8.48l3.8-31.01Z"/>
      <path class="cls-1" d="M161.2,76.07h-26.62v-27.79h26.62v-30.72L199.82,0v48.27h41.25v27.79h-41.25v74.9c0,9.56,1.71,16.53,5.12,20.92,3.41,4.39,9.02,6.58,16.82,6.58,3.7,0,7.61-.63,11.7-1.9,4.1-1.27,7.61-2.97,10.53-5.12l-2.63,31.6c-4.29,1.95-9.07,3.37-14.34,4.24-5.27.88-10.34,1.32-15.21,1.32-17.17,0-29.89-4.29-38.18-12.87-8.29-8.58-12.43-21.45-12.43-38.62v-81.04Z"/>
      <path class="cls-1" d="M270.91,48.27h37.74v28.67c5.07-10.92,11.65-19.06,19.75-24.43,8.09-5.36,16.82-8.04,26.18-8.04,4.1,0,7.7.29,10.82.88l-4.1,38.62c-3.12-1.76-7.61-2.63-13.46-2.63-8.78,0-16.63,2.68-23.55,8.05-6.93,5.37-11.85,12.34-14.77,20.92v94.5h-38.62V48.27Z"/>
      <path class="cls-1" d="M512.57,166.47l3.8,31.6c-6.05,3.12-13.75,5.66-23.11,7.61-9.36,1.95-19.02,2.93-28.96,2.93-17.17,0-31.94-3.42-44.32-10.24-12.39-6.82-21.94-16.57-28.67-29.26-6.73-12.68-10.09-27.69-10.09-45.06,0-15.99,2.93-29.94,8.78-41.84,5.85-11.89,14.19-21.16,25.01-27.79,10.82-6.63,23.74-9.95,38.77-9.95,20.09,0,35.74,6.05,46.96,18.14,11.21,12.1,16.82,29.55,16.82,52.37,0,1.95-.1,4.78-.29,8.48-.2,3.71-.39,6.73-.59,9.07h-96.55c1.76,15.8,6.97,27.6,15.65,35.4,8.68,7.8,19.94,11.7,33.79,11.7,7.61,0,15.41-1.12,23.4-3.36,8-2.24,14.53-5.51,19.6-9.8ZM453.76,71.09c-9.36,0-16.97,3.32-22.82,9.95-5.85,6.63-9.46,16.09-10.82,28.38h62.9c0-12.48-2.59-21.99-7.75-28.53-5.17-6.53-12.34-9.8-21.5-9.8Z"/>
      <path class="cls-1" d="M674.06,177c0,4.49.29,9.41.88,14.78.58,5.36,1.27,9.7,2.05,13.02h-35.99c-.78-2.34-1.51-5.41-2.19-9.22-.69-3.8-1.22-7.65-1.61-11.56-5.07,8.19-11.7,14.34-19.89,18.43-8.19,4.1-17.26,6.14-27.21,6.14-13.85,0-25.16-4.24-33.94-12.73-8.78-8.48-13.17-19.65-13.17-33.5,0-15.6,6.58-28.18,19.75-37.74,13.17-9.55,32.42-15.6,57.78-18.14l14.92-1.46c-.2-9.95-3.22-17.75-9.07-23.4-5.85-5.65-14.53-8.48-26.04-8.48-7.22,0-14.82,1.27-22.82,3.8-8,2.54-15.41,6.54-22.23,12l-2.63-31.3c7.41-4.29,15.95-7.56,25.6-9.8,9.65-2.24,19.26-3.36,28.82-3.36,21.84,0,38.47,5.56,49.88,16.68,11.41,11.12,17.11,26.82,17.11,47.1v68.75ZM587.17,175.25c4.1,4.09,9.55,6.14,16.38,6.14,6.24,0,12.24-1.65,17.99-4.97,5.75-3.31,10.39-8.09,13.9-14.34v-34.82l-10.82,1.17c-14.82,1.75-25.8,5.17-32.91,10.24-7.12,5.07-10.68,11.9-10.68,20.48,0,6.63,2.05,12,6.14,16.09Z"/>
      <path class="cls-1" d="M710.34,48.27h37.74v21.36c9.75-16.77,24.87-25.16,45.35-25.16,10.34,0,19.26,2.49,26.77,7.46,7.51,4.97,13.21,12.14,17.12,21.5,4.87-9.17,11.65-16.28,20.33-21.36,8.68-5.07,18.38-7.61,29.11-7.61,14.82,0,26.67,5.02,35.55,15.07,8.87,10.05,13.31,24.04,13.31,41.98v103.28h-38.33v-100.06c0-9.55-2.1-17.01-6.29-22.38-4.2-5.36-10.09-8.04-17.7-8.04s-13.51,2-18.87,6c-5.37,4-9.41,9.21-12.14,15.65v108.83h-38.33v-100.06c0-9.55-2.1-17.01-6.29-22.38-4.2-5.36-10.19-8.04-17.99-8.04-7.22,0-13.46,2-18.72,6-5.27,4-9.27,9.21-12,15.65v108.83h-38.62V48.27Z"/>
    </g>
    <g>
      <path class="cls-1" d="M22.09,436.22c-13.56-14.82-20.33-34.71-20.33-59.68,0-16.57,3.17-31.01,9.51-43.3,6.34-12.29,15.31-21.84,26.92-28.67,11.6-6.82,25.21-10.24,40.81-10.24,8.58,0,16.87,1.02,24.87,3.07,8,2.05,14.63,4.83,19.89,8.34l-9.07,28.96c-8.78-7.02-19.12-10.53-31.01-10.53-13.07,0-23.4,4.53-31.01,13.6-7.61,9.07-11.41,21.7-11.41,37.89s3.8,29.5,11.41,38.76c7.61,9.27,18.43,13.9,32.48,13.9,6.24,0,12.53-1.07,18.87-3.22,6.34-2.14,11.36-4.97,15.07-8.49l3.51,32.77c-4.88,2.54-11.07,4.68-18.58,6.43-7.51,1.76-15.65,2.64-24.43,2.64-24.77,0-43.93-7.41-57.49-22.24Z"/>
      <path class="cls-1" d="M148.33,268.28c-4.49-4.29-6.73-9.55-6.73-15.8s2.24-11.8,6.73-16.09c4.48-4.29,10.04-6.44,16.68-6.44s12.43,2.15,16.82,6.44c4.39,4.29,6.58,9.65,6.58,16.09s-2.19,11.51-6.58,15.8c-4.39,4.29-10,6.44-16.82,6.44s-12.19-2.14-16.68-6.44ZM145.7,298.12h38.33v156.52h-38.33v-156.52Z"/>
      <path class="cls-1" d="M216.5,298.12h37.74v28.67c5.07-10.92,11.65-19.06,19.75-24.43,8.09-5.36,16.82-8.04,26.18-8.04,4.1,0,7.7.29,10.82.88l-4.1,38.62c-3.12-1.75-7.61-2.63-13.46-2.63-8.78,0-16.63,2.68-23.55,8.05-6.93,5.36-11.85,12.34-14.77,20.92v94.5h-38.62v-156.52Z"/>
      <path class="cls-1" d="M341.27,436.22c-13.56-14.82-20.33-34.71-20.33-59.68,0-16.57,3.17-31.01,9.51-43.3,6.34-12.29,15.31-21.84,26.92-28.67,11.6-6.82,25.21-10.24,40.81-10.24,8.58,0,16.87,1.02,24.87,3.07,8,2.05,14.63,4.83,19.89,8.34l-9.07,28.96c-8.78-7.02-19.12-10.53-31.01-10.53-13.07,0-23.4,4.53-31.01,13.6-7.61,9.07-11.41,21.7-11.41,37.89s3.8,29.5,11.41,38.76c7.61,9.27,18.43,13.9,32.48,13.9,6.24,0,12.53-1.07,18.87-3.22,6.34-2.14,11.36-4.97,15.07-8.49l3.51,32.77c-4.88,2.54-11.07,4.68-18.58,6.43-7.51,1.76-15.65,2.64-24.43,2.64-24.77,0-43.93-7.41-57.49-22.24Z"/>
      <path class="cls-1" d="M464.3,232.3h38.62v172.61c0,8.39,1.41,14.34,4.24,17.85,2.82,3.51,7.56,5.27,14.19,5.27,7.21,0,13.06-1.95,17.55-5.85l-2.34,31.31c-7.22,2.93-15.8,4.39-25.75,4.39-31.01,0-46.52-15.6-46.52-46.81v-178.76Z"/>
      <path class="cls-1" d="M679.33,416.32l3.8,31.6c-6.05,3.12-13.75,5.66-23.11,7.61-9.36,1.95-19.02,2.93-28.96,2.93-17.17,0-31.94-3.42-44.32-10.24-12.39-6.82-21.94-16.57-28.67-29.26-6.73-12.68-10.09-27.69-10.09-45.06,0-15.99,2.93-29.94,8.78-41.84,5.85-11.9,14.19-21.16,25.01-27.79,10.82-6.63,23.74-9.95,38.77-9.95,20.09,0,35.74,6.05,46.96,18.14,11.21,12.1,16.82,29.55,16.82,52.37,0,1.95-.1,4.78-.29,8.49-.2,3.71-.39,6.73-.59,9.07h-96.55c1.76,15.8,6.97,27.6,15.65,35.4,8.68,7.8,19.94,11.7,33.79,11.7,7.61,0,15.41-1.12,23.4-3.36,8-2.24,14.53-5.51,19.6-9.8ZM620.52,320.95c-9.36,0-16.97,3.32-22.82,9.95-5.85,6.63-9.46,16.09-10.82,28.38h62.9c0-12.48-2.59-21.99-7.75-28.53-5.17-6.53-12.34-9.8-21.5-9.8Z"/>
    </g>
    <path class="cls-2" d="M811.08,247.05v57.58c-20.3,6.69-35,25.81-35,48.32,0,28.05,22.82,50.87,50.87,50.87,13.08,0,25.02-4.96,34.04-13.11l49.83,28.77c-19.62,24.7-49.89,40.55-83.87,40.55-59.14,0-107.09-47.94-107.09-107.09,0-53.75,39.6-98.24,91.21-105.91"/>
    <path class="cls-3" d="M877.82,352.96c0-22.51-14.7-41.64-35-48.32v-57.58c51.61,7.67,91.21,52.16,91.21,105.91,0,13.78-2.63,26.93-7.37,39.03l-49.88-28.8c.68-3.3,1.03-6.73,1.03-10.23"/>
  </g>
</svg>
