<svg width="45" height="44" viewBox="0 0 45 44" fill="none" xmlns="http://www.w3.org/2000/svg">
<g filter="url(#filter0_d_1_18961)">
<path d="M14.0665 21L22.1017 25.0176C22.211 25.0722 22.2657 25.0996 22.323 25.1103C22.3738 25.1198 22.4259 25.1198 22.4767 25.1103C22.534 25.0996 22.5887 25.0722 22.698 25.0176L30.7332 21M14.0665 25.1666L22.1017 29.1842C22.211 29.2389 22.2657 29.2662 22.323 29.277C22.3738 29.2865 22.4259 29.2865 22.4767 29.277C22.534 29.2662 22.5887 29.2389 22.698 29.1842L30.7332 25.1666M14.0665 16.8333L22.1017 12.8157C22.211 12.7611 22.2657 12.7337 22.323 12.723C22.3738 12.7134 22.4259 12.7134 22.4767 12.723C22.534 12.7337 22.5887 12.7611 22.698 12.8157L30.7332 16.8333L22.698 20.8509C22.5887 20.9056 22.534 20.9329 22.4767 20.9436C22.4259 20.9532 22.3738 20.9532 22.323 20.9436C22.2657 20.9329 22.211 20.9056 22.1017 20.8509L14.0665 16.8333Z" stroke="#9F9F9F" stroke-width="1.66667" stroke-linecap="round" stroke-linejoin="round"/>
<rect x="2.8999" y="1.5" width="39" height="39" rx="7.5" stroke="#4C4B4C"/>
</g>
<defs>
<filter id="filter0_d_1_18961" x="0.399902" y="0" width="44" height="44" filterUnits="userSpaceOnUse" color-interpolation-filters="sRGB">
<feFlood flood-opacity="0" result="BackgroundImageFix"/>
<feColorMatrix in="SourceAlpha" type="matrix" values="0 0 0 0 0 0 0 0 0 0 0 0 0 0 0 0 0 0 127 0" result="hardAlpha"/>
<feOffset dy="1"/>
<feGaussianBlur stdDeviation="1"/>
<feColorMatrix type="matrix" values="0 0 0 0 0.0627451 0 0 0 0 0.0941176 0 0 0 0 0.156863 0 0 0 0.05 0"/>
<feBlend mode="normal" in2="BackgroundImageFix" result="effect1_dropShadow_1_18961"/>
<feBlend mode="normal" in="SourceGraphic" in2="effect1_dropShadow_1_18961" result="shape"/>
</filter>
</defs>
</svg>
