<svg width="45" height="44" viewBox="0 0 45 44" fill="none" xmlns="http://www.w3.org/2000/svg">
<g filter="url(#filter0_d_143_17031)">
<path d="M25.3333 13.8898C26.5681 14.5034 27.4166 15.7776 27.4166 17.25C27.4166 18.7224 26.5681 19.9966 25.3333 20.6102M27 24.972C28.2595 25.5419 29.3937 26.4708 30.3333 27.6667M13.6666 27.6667C15.2887 25.6021 17.4909 24.3333 19.9166 24.3333C22.3423 24.3333 24.5446 25.6021 26.1666 27.6667M23.6666 17.25C23.6666 19.3211 21.9877 21 19.9166 21C17.8456 21 16.1666 19.3211 16.1666 17.25C16.1666 15.1789 17.8456 13.5 19.9166 13.5C21.9877 13.5 23.6666 15.1789 23.6666 17.25Z" stroke="#9F9F9F" stroke-width="2" stroke-linecap="round" stroke-linejoin="round"/>
<rect x="2.69995" y="1.5" width="39" height="39" rx="7.5" stroke="#4C4B4C"/>
</g>
<defs>
<filter id="filter0_d_143_17031" x="0.199951" y="0" width="44" height="44" filterUnits="userSpaceOnUse" color-interpolation-filters="sRGB">
<feFlood flood-opacity="0" result="BackgroundImageFix"/>
<feColorMatrix in="SourceAlpha" type="matrix" values="0 0 0 0 0 0 0 0 0 0 0 0 0 0 0 0 0 0 127 0" result="hardAlpha"/>
<feOffset dy="1"/>
<feGaussianBlur stdDeviation="1"/>
<feColorMatrix type="matrix" values="0 0 0 0 0.0627451 0 0 0 0 0.0941176 0 0 0 0 0.156863 0 0 0 0.05 0"/>
<feBlend mode="normal" in2="BackgroundImageFix" result="effect1_dropShadow_143_17031"/>
<feBlend mode="normal" in="SourceGraphic" in2="effect1_dropShadow_143_17031" result="shape"/>
</filter>
</defs>
</svg>
