<?xml version="1.0" encoding="UTF-8"?>
<svg id="Layer_1" data-name="Layer 1" xmlns="http://www.w3.org/2000/svg" viewBox="0 0 595.98 198.63">
  <defs>
    <style>
      .cls-1 {
        fill: #cbe9fa;
        opacity: .3;
        stroke-width: 0px;
      }
    </style>
  </defs>
  <circle class="cls-1" cx="25.37" cy="26.91" r="4.55"/>
  <circle class="cls-1" cx="323.82" cy="168.97" r="4.55"/>
  <circle class="cls-1" cx="556.45" cy="13.63" r="4.55"/>
  <circle class="cls-1" cx="564.03" cy="181.42" r="4.55"/>
  <circle class="cls-1" cx="48.44" cy="164.42" r="4.55"/>
  <circle class="cls-1" cx="174.23" cy="45.18" r="4.55"/>
  <circle class="cls-1" cx="390.34" cy="13.63" r="4.55"/>
  <circle class="cls-1" cx="591.43" cy="90.68" r="4.55"/>
  <circle class="cls-1" cx="126.54" cy="190.53" r="4.55"/>
  <circle class="cls-1" cx="271.14" cy="11.02" r="4.55"/>
  <circle class="cls-1" cx="452.94" cy="190.53" r="4.55"/>
  <circle class="cls-1" cx="496.07" cy="25.35" r="2.99"/>
  <circle class="cls-1" cx="116.18" cy="26.91" r="2.99"/>
  <circle class="cls-1" cx="222.68" cy="176.87" r="2.99"/>
  <circle class="cls-1" cx="245.75" cy="61.08" r="2.99"/>
  <circle class="cls-1" cx="441.02" cy="61.08" r="2.99"/>
  <circle class="cls-1" cx="482.71" cy="157.74" r="2.99"/>
  <circle class="cls-1" cx="77.43" cy="130.73" r="2.99"/>
  <circle class="cls-1" cx="77.43" cy="12.58" r="2.99"/>
  <circle class="cls-1" cx="20.82" cy="102.54" r="2.99"/>
  <circle class="cls-1" cx="13.81" cy="190.53" r="2.99"/>
  <circle class="cls-1" cx="341.11" cy="17.15" r="2.99"/>
  <circle class="cls-1" cx="279.29" cy="193.52" r="2.99"/>
  <circle class="cls-1" cx="228.67" cy="34.46" r="2.99"/>
  <circle class="cls-1" cx="409.73" cy="153.92" r="2.99"/>
  <circle class="cls-1" cx="524.46" cy="46.74" r="2.99"/>
  <circle class="cls-1" cx="579.51" cy="150.92" r="2.99"/>
  <circle class="cls-1" cx="358.79" cy="185.98" r="2.99"/>
  <circle class="cls-1" cx="369.5" cy="34.46" r="2.99"/>
  <circle class="cls-1" cx="576.52" cy="51.04" r="2.99"/>
  <circle class="cls-1" cx="475.81" cy="117.2" r="2.03"/>
  <circle class="cls-1" cx="429.1" cy="23.32" r="2.03"/>
  <circle class="cls-1" cx="577.48" cy="25.35" r="2.03"/>
  <circle class="cls-1" cx="460.45" cy="41.72" r="2.03"/>
  <circle class="cls-1" cx="518.38" cy="178.9" r="2.03"/>
  <circle class="cls-1" cx="591.43" cy="178.9" r="2.03"/>
  <circle class="cls-1" cx="406.73" cy="56.06" r="2.03"/>
  <circle class="cls-1" cx="299.08" cy="31.46" r="2.03"/>
  <circle class="cls-1" cx="271.14" cy="157.74" r="2.03"/>
  <circle class="cls-1" cx="177.81" cy="153.43" r="2.03"/>
  <circle class="cls-1" cx="197.59" cy="191.5" r="2.03"/>
  <circle class="cls-1" cx="100.86" cy="165.37" r="2.03"/>
  <circle class="cls-1" cx="64.92" cy="192.56" r="2.03"/>
  <circle class="cls-1" cx="20.04" cy="144.92" r="2.03"/>
  <circle class="cls-1" cx="27.4" cy="70.3" r="2.03"/>
  <circle class="cls-1" cx="10.02" cy="49.73" r="2.03"/>
  <circle class="cls-1" cx="2.03" cy="2.39" r="2.03"/>
  <circle class="cls-1" cx="48.44" cy="7.56" r="2.03"/>
  <circle class="cls-1" cx="155.86" cy="9.59" r="2.03"/>
  <circle class="cls-1" cx="197.65" cy="17.6" r="2.03"/>
  <circle class="cls-1" cx="203.93" cy="51.76" r="2.03"/>
  <circle class="cls-1" cx="52.99" cy="48.49" r="1.25"/>
  <circle class="cls-1" cx="152.98" cy="171.43" r="1.25"/>
  <circle class="cls-1" cx="92.43" cy="184.73" r="1.25"/>
  <circle class="cls-1" cx="54.23" cy="146.16" r="1.25"/>
  <circle class="cls-1" cx="31.17" cy="173.88" r="1.25"/>
  <circle class="cls-1" cx="8" cy="127.74" r="1.25"/>
  <circle class="cls-1" cx="6.75" cy="78.58" r="1.25"/>
  <circle class="cls-1" cx="54.23" cy="77.34" r="1.25"/>
  <circle class="cls-1" cx="33.2" cy="9.59" r="1.25"/>
  <circle class="cls-1" cx="91.13" cy="41.87" r="1.25"/>
  <circle class="cls-1" cx="106.12" cy="4.42" r="1.25"/>
  <circle class="cls-1" cx="145.29" cy="36.2" r="1.25"/>
  <circle class="cls-1" cx="189.39" cy="54.92" r="1.25"/>
  <circle class="cls-1" cx="234.63" cy="1.25" r="1.25"/>
  <circle class="cls-1" cx="253.7" cy="47.39" r="1.25"/>
  <circle class="cls-1" cx="316.04" cy="35.28" r="1.25"/>
  <circle class="cls-1" cx="301.11" cy="6.47" r="1.25"/>
  <circle class="cls-1" cx="341.11" cy="51.07" r="1.25"/>
  <circle class="cls-1" cx="364.23" cy="11.02" r="1.25"/>
  <circle class="cls-1" cx="456.93" cy="55.74" r="1.25"/>
  <circle class="cls-1" cx="439.77" cy="4.03" r="1.25"/>
  <circle class="cls-1" cx="439.77" cy="4.03" r="1.25"/>
  <circle class="cls-1" cx="469.78" cy="17.15" r="1.25"/>
  <circle class="cls-1" cx="432.37" cy="45.49" r="1.25"/>
  <circle class="cls-1" cx="502.77" cy="5.27" r="1.25"/>
  <circle class="cls-1" cx="521.46" cy="28.34" r="1.25"/>
  <circle class="cls-1" cx="549.55" cy="57.05" r="1.25"/>
  <circle class="cls-1" cx="581.87" cy="5.27" r="1.25"/>
  <circle class="cls-1" cx="591.43" cy="36.75" r="1.25"/>
  <circle class="cls-1" cx="562.25" cy="78.65" r="1.25"/>
  <circle class="cls-1" cx="561.82" cy="131.34" r="1.25"/>
  <circle class="cls-1" cx="593.46" cy="120.47" r="1.25"/>
  <circle class="cls-1" cx="495.37" cy="178.9" r="1.25"/>
  <circle class="cls-1" cx="543.42" cy="155.99" r="1.25"/>
  <circle class="cls-1" cx="485.41" cy="142.46" r="1.25"/>
  <circle class="cls-1" cx="429.61" cy="143.77" r="1.25"/>
  <circle class="cls-1" cx="535.89" cy="197.38" r="1.25"/>
  <circle class="cls-1" cx="405.95" cy="180.14" r="1.25"/>
  <circle class="cls-1" cx="335.35" cy="151.95" r="1.25"/>
  <circle class="cls-1" cx="375.77" cy="128.06" r="1.25"/>
  <circle class="cls-1" cx="309.33" cy="156.7" r="1.25"/>
  <circle class="cls-1" cx="373.28" cy="193.52" r="1.25"/>
  <circle class="cls-1" cx="263.93" cy="187.72" r="1.25"/>
  <circle class="cls-1" cx="182.19" cy="147.37" r="1.25"/>
  <circle class="cls-1" cx="223.75" cy="167.66" r="1.25"/>
  <circle class="cls-1" cx="179.9" cy="176.34" r="1.25"/>
  <circle class="cls-1" cx="163.08" cy="194.58" r="1.25"/>
  <circle class="cls-1" cx="133.18" cy="161.01" r="1.25"/>
</svg>