<svg width="64" height="64" viewBox="0 0 64 64" fill="none" xmlns="http://www.w3.org/2000/svg">
<circle cx="32" cy="32" r="28" fill="#0083A9"/>
<path d="M29 31.2222L32.7778 35M27.9748 40.9749C26.608 42.3417 24 42 22 42C23.0251 40 21.6583 37.392 23.0251 36.0251C24.3919 34.6583 26.608 34.6583 27.9748 36.0251C29.3417 37.392 29.3417 39.608 27.9748 40.9749ZM31.9216 35.9246L41.0587 26.0565C41.8635 25.1874 41.8375 23.8376 40.9999 23C40.1624 22.1624 38.8126 22.1364 37.9434 22.9412L28.0753 32.0783C27.5654 32.5505 27.3104 32.7866 27.1617 33.0384C26.8051 33.6421 26.7908 34.3885 27.1239 35.0056C27.2628 35.2629 27.5085 35.5086 27.9999 36C28.4914 36.4914 28.7371 36.7371 28.9944 36.876C29.6114 37.2091 30.3578 37.1948 30.9616 36.8382C31.2134 36.6895 31.4494 36.4345 31.9216 35.9246Z" stroke="white" stroke-width="2" stroke-linecap="round" stroke-linejoin="round"/>
</svg>
