<svg width="64" height="64" viewBox="0 0 64 64" fill="none" xmlns="http://www.w3.org/2000/svg">
<circle cx="32" cy="32" r="28" fill="#0083A9"/>
<path d="M27.5 27H30.25M27.5 31H30.25M27.5 35H30.25M33.75 27H36.5M33.75 31H36.5M33.75 35H36.5M40 41V26.2C40 25.0799 40 24.5198 39.782 24.092C39.5903 23.7157 39.2843 23.4097 38.908 23.218C38.4802 23 37.9201 23 36.8 23H27.2C26.0799 23 25.5198 23 25.092 23.218C24.7157 23.4097 24.4097 23.7157 24.218 24.092C24 24.5198 24 25.0799 24 26.2V41M42 41H22" stroke="white" stroke-width="2" stroke-linecap="round" stroke-linejoin="round"/>
</svg>
