<svg width="64" height="64" viewBox="0 0 64 64" fill="none" xmlns="http://www.w3.org/2000/svg">
<circle cx="32" cy="32" r="28" fill="#0083A9"/>
<path d="M35.2 40H25.9314C25.3256 40 25.0226 40 24.8824 39.8802C24.7607 39.7763 24.6961 39.6203 24.7086 39.4608C24.7231 39.2769 24.9373 39.0627 25.3657 38.6343L33.8686 30.1314C34.2646 29.7354 34.4627 29.5373 34.691 29.4632C34.8918 29.3979 35.1082 29.3979 35.309 29.4632C35.5373 29.5373 35.7354 29.7354 36.1314 30.1314L40 34V35.2M35.2 40C36.8802 40 37.7202 40 38.362 39.673C38.9265 39.3854 39.3854 38.9265 39.673 38.362C40 37.7202 40 36.8802 40 35.2M35.2 40H26.8C25.1198 40 24.2798 40 23.638 39.673C23.0735 39.3854 22.6146 38.9265 22.327 38.362C22 37.7202 22 36.8802 22 35.2V26.8C22 25.1198 22 24.2798 22.327 23.638C22.6146 23.0735 23.0735 22.6146 23.638 22.327C24.2798 22 25.1198 22 26.8 22H35.2C36.8802 22 37.7202 22 38.362 22.327C38.9265 22.6146 39.3854 23.0735 39.673 23.638C40 24.2798 40 25.1198 40 26.8V35.2M29.5 27.5C29.5 28.6046 28.6046 29.5 27.5 29.5C26.3954 29.5 25.5 28.6046 25.5 27.5C25.5 26.3954 26.3954 25.5 27.5 25.5C28.6046 25.5 29.5 26.3954 29.5 27.5Z" stroke="white" stroke-width="2" stroke-linecap="round" stroke-linejoin="round"/>
<path fill-rule="evenodd" clip-rule="evenodd" d="M25.436 42.816C25.3025 42.5539 25.2123 42.2826 25.1504 42H27.2676C27.6134 42.5978 28.2597 43 29 43H30.7002C30.7331 43 30.7663 43 30.8001 43H39.2001C39.2337 43 39.2669 43 39.2996 43H41C41.4883 43 41.9357 42.825 42.2829 42.5344C42.3781 42.4548 42.4657 42.3666 42.5445 42.2708C42.8291 41.9253 43 41.4826 43 41V39.4613C43.0001 39.3771 43.0001 39.2901 43.0001 39.2V38.4142L43 38.4142V35.5857L43.0001 35.5858V30.8C43.0001 29.9434 42.9993 29.3611 42.9625 28.911C42.9267 28.4726 42.8618 28.2484 42.7821 28.092C42.6062 27.7469 42.3343 27.4609 42.0001 27.268V25.1503C42.2827 25.2123 42.5539 25.3024 42.816 25.436C43.5687 25.8195 44.1806 26.4314 44.5641 27.184C44.8114 27.6694 44.9099 28.1861 44.9559 28.7482C45.0001 29.2894 45.0001 29.9537 45.0001 30.7587V30.8V38V39.2V39.2413C45.0001 40.0463 45.0001 40.7106 44.9559 41.2518C44.9099 41.8139 44.8114 42.3306 44.5641 42.816C44.1806 43.5686 43.5687 44.1805 42.816 44.564C42.3307 44.8113 41.814 44.9099 41.2519 44.9558C40.7107 45 40.0463 45 39.2414 45H39.2001H30.8001H30.7587H30.6868H29.9314L29.8942 45C29.6238 45 29.3581 45.0001 29.1441 44.9811L29.1191 44.9788C28.9895 44.973 28.866 44.9654 28.7482 44.9558C28.1861 44.9099 27.6694 44.8113 27.1841 44.564C26.4315 44.1805 25.8195 43.5686 25.436 42.816Z" fill="white"/>
</svg>
