<svg width="64" height="64" viewBox="0 0 64 64" fill="none" xmlns="http://www.w3.org/2000/svg">
<circle cx="32" cy="32" r="28" fill="#0083A9"/>
<path d="M32 22C34.5013 24.7384 35.9228 28.292 36 32C35.9228 35.708 34.5013 39.2616 32 42M32 22C29.4987 24.7384 28.0772 28.292 28 32C28.0772 35.708 29.4987 39.2616 32 42M32 22C26.4772 22 22 26.4772 22 32C22 37.5228 26.4772 42 32 42M32 22C37.5228 22 42 26.4772 42 32C42 37.5228 37.5228 42 32 42M22.5 29H41.5M22.5 35H41.5" stroke="white" stroke-width="2" stroke-linecap="round" stroke-linejoin="round"/>
</svg>
